<svg width="127" height="106.53" xmlns="http://www.w3.org/2000/svg">
 <defs>
  <style>.cls-1{fill:#3f7de8;}</style>
 </defs>
 <g>
  <title>background</title>
  <rect fill="none" id="canvas_background" height="402" width="582" y="-1" x="-1"/>
 </g>
 <g>
  <title>Layer 1</title>
  <path stroke="null" id="svg_1" d="m119.17021,54.78a19.939482,20.59 0 0 0 -14.225886,-6.12l-9.887427,0a35.424297,36.58 0 0 0 -65.803197,-13.33l-0.6682,0a26.56338,27.43 0 0 0 -0.242102,54.85l76.504085,0a20.12348,20.78 0 0 0 20.152532,-20.74a19.852326,20.5 0 0 0 -5.829805,-14.66zm-14.274307,27.49l-47.878,0a12.492439,12.9 0 0 1 -5.335918,-1.24l-0.222733,-0.11l-0.222733,-0.08c-0.697252,-0.24 -1.375137,-0.5 -2.043337,-0.79a27.783572,28.69 0 0 1 9.906795,-55.13l0.842513,0a27.812624,28.72 0 0 1 27.773888,27.81l0.116209,3.83l17.121421,0a12.434335,12.84 0 0 1 12.395599,12.86a12.463387,12.87 0 0 1 -12.453703,12.85z" class="cls-1"/>
  <circle stroke="null" id="svg_2" transform="rotate(-45 81.54192352294922,63.954307556152344) " r="5.439999" cy="63.954301" cx="81.541923" class="cls-1"/>
 </g>
</svg>
